<?xml version="1.0" encoding="UTF-8" standalone="no"?>
<svg
   width="188.99899"
   height="89.916"
   viewBox="0 0 188.99886 89.915942"
   version="1.1"
   id="svg2"
   xmlns="http://www.w3.org/2000/svg"
   xmlns:svg="http://www.w3.org/2000/svg">
  <defs
     id="defs2" />
  <path
     d="m 100.95313,33.046875 c -0.0172,0.04277 -0.0554,0.108315 -0.0684,0.146484 -0.062,0.183212 -0.0732,0.311469 -0.0293,0.378907 0.0609,-0.06744 0.0952,-0.196293 0.10547,-0.38086 0.002,-0.03763 -0.008,-0.102439 -0.008,-0.144531 z"
     id="path5" />
  <path
     d="m 100.95313,33.046875 c -0.0172,0.04277 -0.0555,0.108314 -0.0684,0.146484 -0.031,0.09161 -0.0496,0.169027 -0.0547,0.232422 -0.005,0.06339 0.003,0.112765 0.0254,0.146485 0.061,-0.06744 0.0952,-0.196293 0.10547,-0.38086 0.002,-0.03763 -0.008,-0.102441 -0.008,-0.144531 z"
     id="path13" />
  <path
     d="M 94.424,62.555 C 42.281,62.555 0,68.675 0,76.238 c 0,7.558 42.281,13.678 94.424,13.678 52.239,0 94.524,-6.12 94.524,-13.678 0.001,-7.563 -42.284,-13.683 -94.524,-13.683 z m -3.346,18.544 c -11.98,0 -21.58,-2.072 -21.58,-4.595 0,-2.523 9.599,-4.59 21.58,-4.59 11.888,0 21.498,2.066 21.498,4.59 0,2.523 -9.61,4.595 -21.498,4.595 z"
     id="path2" />
  <g
     id="g13"
     transform="translate(-5.596234)">
    <path
       d="m 146.1729,0 h -21.10938 c -10.83398,13.048974 -12.86328,15.572266 -12.86328,15.572266 0,0 -0.8593,1.056862 -2.13672,2.660156 -1.27742,1.603293 -2.97255,3.752863 -4.64648,5.935547 -0.83697,1.091341 -1.66854,2.190168 -2.43945,3.234375 -0.77093,1.044207 -1.4814,2.033259 -2.07618,2.902343 -0.59477,0.869086 -1.074297,1.619574 -1.382807,2.185547 -0.12212,0.224032 -0.19455,0.394098 -0.25976,0.556641 -1.5e-4,0.04209 0.01,0.106903 0.008,0.144531 -0.0103,0.184567 -0.0445,0.313422 -0.10547,0.38086 -0.022,-0.03372 -0.0305,-0.08309 -0.0254,-0.146485 0.005,-0.06339 0.0237,-0.140816 0.0547,-0.232422 0.0129,-0.03817 0.0512,-0.10371 0.0684,-0.146484 5.6e-4,-0.164368 -0.002,-0.337146 -0.0293,-0.564453 -0.0683,-0.571033 -0.21931,-1.329275 -0.42774,-2.207031 -0.20843,-0.877756 -0.47481,-1.876594 -0.773434,-2.931641 -0.298621,-1.055047 -0.629906,-2.164674 -0.96875,-3.267578 -0.677686,-2.205808 -1.387048,-4.379363 -1.925781,-6 -0.538733,-1.620638 -0.90625,-2.689453 -0.90625,-2.689453 0,0 -1.234522,-3.596743 -5.103516,-15.386719 H 75.11626 70.440479 l 21.671875,62.375 z"
       id="path12" />
    <path
       id="rect13"
       style="fill:#000000;stroke-width:28.0039;stroke-linejoin:bevel;stroke-miterlimit:27.7"
       d="m 24.288078,-14.099639 h 17.553339 v 69.075447 l -18.004646,3.88062 z"
       transform="rotate(11.097073)" />
    <path
       id="rect13-6"
       style="fill:#000000;stroke-width:29.7372;stroke-linejoin:bevel;stroke-miterlimit:27.7"
       d="m 44.791849,-75.781688 17.557794,-7.425387 -0.0032,67.291716 H 44.793064 Z"
       transform="rotate(90)" />
    <path
       id="rect13-3"
       style="fill:#000000;stroke-width:28.0039;stroke-linejoin:bevel;stroke-miterlimit:27.7"
       d="m 157.69081,-0.11694808 0.20017,-0.13949502 -12.06616,62.2665911 -18.41491,0.342675 8.53728,-36.808317 z" />
    <path
       id="rect13-6-5"
       style="fill:#000000;stroke-width:29.7372;stroke-linejoin:bevel;stroke-miterlimit:27.7"
       d="m 191.12872,44.800805 -5.42961,17.562728 -54.43672,-0.0081 V 44.80202 Z" />
  </g>
</svg>
